<svg id="channel_log" xmlns="http://www.w3.org/2000/svg" width="18" height="18" viewBox="0 0 18 18">
  <rect id="change_log" width="18" height="18" fill="none"/>
  <path id="Vector" d="M12,0a1.5,1.5,0,0,1,1.5,1.5V9.879L12,8.379V3H1.5v9H8.379l1.5,1.5H1.5A1.5,1.5,0,0,1,0,12V1.5A1.5,1.5,0,0,1,1.5,0ZM4.5,5.25v1.5H3V5.25Zm6,0v1.5H6V5.25Zm-6,3v1.5H3V8.25Zm3,0v1.5H6V8.25Zm3,.75,3.86,3.86-1.5,1.5L9,10.5V9Zm5.14,5.14a.375.375,0,0,1,0,.53l-.97.97a.375.375,0,0,1-.53,0l-.75-.75,1.5-1.5Z" transform="translate(2.25 2.25)" fill="#222"/>
</svg>
