<svg id="icons8-close_1" data-name="icons8-close 1" xmlns="http://www.w3.org/2000/svg" width="20" height="20" viewBox="0 0 20 20">
  <rect id="icons8-close_1-2" width="20" height="20" fill="none"/>
  <g id="Vector" transform="translate(3.321 3.325)" fill="#222">
    <path d="M 12.52402496337891 13.60390567779541 L 12.51306533813477 13.60385513305664 C 12.36814498901367 13.60237503051758 12.22723484039307 13.57247543334961 12.09423446655273 13.51498508453369 C 11.96213245391846 13.45788192749023 11.8445348739624 13.37648391723633 11.74463081359863 13.27299118041992 L 6.678744792938232 8.207095146179199 L 1.612858414649963 13.27299118041992 C 1.512944579124451 13.37649440765381 1.395337462425232 13.45790195465088 1.263244867324829 13.51498508453369 C 1.130234837532043 13.57248497009277 0.9893248677253723 13.60237503051758 0.8444249033927917 13.60384559631348 L 0.8334048986434937 13.60389518737793 C 0.6923348903656006 13.60389518737793 0.5545749068260193 13.57686519622803 0.4239248931407928 13.52353477478027 C 0.2897648811340332 13.46875476837158 0.169794887304306 13.38903522491455 0.06732488423585892 13.28657531738281 C -0.0351451151072979 13.18409538269043 -0.1148651167750359 13.06412506103516 -0.1696251183748245 12.92997550964355 C -0.2243851125240326 12.79584503173828 -0.2514051198959351 12.6543550491333 -0.249935120344162 12.50945568084717 C -0.2484551072120667 12.36458492279053 -0.2185651063919067 12.2236852645874 -0.1610851138830185 12.09066486358643 C -0.1039717569947243 11.9585428237915 -0.02257385477423668 11.84094524383545 0.08091858774423599 11.74104118347168 L 5.146804809570312 6.675155162811279 L 0.07944488525390625 1.607795238494873 C -0.07314511388540268 1.459315180778503 -0.1785151064395905 1.267685174942017 -0.2228851169347763 1.05598521232605 C -0.2672451138496399 0.8442752361297607 -0.2476751208305359 0.6264551877975464 -0.1662751138210297 0.4260752201080322 C -0.08489511162042618 0.2257052212953568 0.05295488610863686 0.05592521652579308 0.2323648929595947 -0.06489478051662445 C 0.411794900894165 -0.1857047826051712 0.6209548711776733 -0.2495947778224945 0.8372249007225037 -0.2496447861194611 C 0.9828948974609375 -0.2496347874403 1.12469494342804 -0.2209047824144363 1.258774876594543 -0.1642747819423676 C 1.392884850502014 -0.1076147854328156 1.512334942817688 -0.02599478326737881 1.613814830780029 0.07833521813154221 L 6.678744316101074 5.14322566986084 L 11.7461051940918 0.07586521655321121 C 11.94085502624512 -0.1246247813105583 12.20535469055176 -0.241094782948494 12.48836517333984 -0.249524787068367 C 12.49909496307373 -0.2498447895050049 12.50974464416504 -0.2499947845935822 12.52037525177002 -0.2499947845935822 C 12.72820472717285 -0.2499947845935822 12.9305248260498 -0.1906647831201553 13.10545444488525 -0.07842478156089783 C 13.2899751663208 0.03996521607041359 13.43266487121582 0.2092652171850204 13.51811504364014 0.4111652076244354 C 13.60355472564697 0.613065242767334 13.62574481964111 0.8333652019500732 13.58227443695068 1.048245191574097 C 13.53878498077393 1.263155221939087 13.43270492553711 1.457495212554932 13.27551460266113 1.610295176506042 L 8.210683822631836 6.675164699554443 L 13.27657127380371 11.74105167388916 C 13.38007354736328 11.84096527099609 13.46148109436035 11.95857238769531 13.51856517791748 12.09066486358643 C 13.57605457305908 12.22365474700928 13.60595512390137 12.36456489562988 13.60743522644043 12.50946521759033 C 13.60890483856201 12.65436553955078 13.58188533782959 12.79585552215576 13.5271053314209 12.93001556396484 C 13.47233486175537 13.06415557861328 13.39261531829834 13.18412494659424 13.29016494750977 13.28658485412598 C 13.18768501281738 13.3890552520752 13.06771469116211 13.46877479553223 12.93356513977051 13.52353477478027 C 12.80295467376709 13.57686519622803 12.66515445709229 13.60390567779541 12.52402496337891 13.60390567779541 Z" stroke="none"/>
    <path d="M 12.52036666870117 -6.67572021484375e-06 C 12.51218414306641 -6.67572021484375e-06 12.50399112701416 0.0001134872436523438 12.49579524993896 0.000354766845703125 C 12.27929496765137 0.006805419921875 12.07381439208984 0.09728527069091797 11.92287445068359 0.2526454925537109 L 6.678744792938232 5.496785163879395 L 1.434595108032227 0.2526350021362305 C 1.356945037841797 0.1728048324584961 1.26407527923584 0.1093549728393555 1.16147518157959 0.0660247802734375 L 1.161484718322754 0.06601524353027344 C 1.058884620666504 0.02267551422119141 0.9486551284790039 0.000354766845703125 0.837285041809082 0.0003452301025390625 C 0.6715049743652344 0.000385284423828125 0.5095052719116211 0.04987525939941406 0.3719949722290039 0.1424655914306641 C 0.2344846725463867 0.2350654602050781 0.1277151107788086 0.3665647506713867 0.06533527374267578 0.5201549530029297 C 0.0029449462890625 0.6737451553344727 -0.01220512390136719 0.8424654006958008 0.02179527282714844 1.004705429077148 C 0.05579471588134766 1.166965484619141 0.1374149322509766 1.315395355224609 0.2562150955200195 1.431005477905273 L 5.500364780426025 6.675155162811279 L 0.2562150955200195 11.91929531097412 C 0.1762351989746094 11.99607563018799 0.1123847961425781 12.08805561065674 0.06839466094970703 12.18983554840088 C 0.02441501617431641 12.29161548614502 0.0011749267578125 12.40113544464111 4.482269287109375e-05 12.51200485229492 C -0.001085281372070312 12.62286567687988 0.01991462707519531 12.73284530639648 0.06182479858398438 12.83549499511719 C 0.1037349700927734 12.93814563751221 0.1656951904296875 13.03139495849609 0.2440948486328125 13.10979557037354 C 0.322504997253418 13.18818473815918 0.4157447814941406 13.25015544891357 0.5183944702148438 13.29206562042236 C 0.6210460662841797 13.33396530151367 0.7310361862182617 13.3549747467041 0.8418951034545898 13.35384559631348 C 0.9527549743652344 13.35273551940918 1.062284469604492 13.32949542999268 1.164054870605469 13.28549480438232 C 1.265834808349609 13.24150562286377 1.357805252075195 13.17765522003174 1.434595108032227 13.09767532348633 L 6.678744792938232 7.853535175323486 L 11.92287445068359 13.09767532348633 C 11.99966526031494 13.1776647567749 12.09164524078369 13.24150562286377 12.19342517852783 13.28549480438232 C 12.29519462585449 13.32949542999268 12.40472507476807 13.35273551940918 12.51559448242188 13.35386562347412 C 12.6264533996582 13.3549747467041 12.73643493652344 13.33398532867432 12.83908462524414 13.29206562042236 C 12.94173526763916 13.25017547607422 13.03498458862305 13.18819522857666 13.11338520050049 13.10979557037354 C 13.19177532196045 13.03140544891357 13.25374507904053 12.93814563751221 13.29565525054932 12.83550548553467 C 13.33756446838379 12.73286533355713 13.35857486724854 12.62288475036621 13.35744476318359 12.5120153427124 C 13.35631465911865 12.40113544464111 13.33307456970215 12.29161548614502 13.28908443450928 12.18983554840088 C 13.24509525299072 12.08805561065674 13.18123531341553 11.99608516693115 13.1012544631958 11.91929531097412 L 7.857124805450439 6.675165176391602 L 13.1012544631958 1.431015014648438 C 13.22167491912842 1.31397533416748 13.30392456054688 1.163265228271484 13.33722496032715 0.9986753463745117 C 13.37052536010742 0.8340654373168945 13.35332489013672 0.6632452011108398 13.28787517547607 0.5085954666137695 C 13.22243499755859 0.3539447784423828 13.11177444458008 0.2226753234863281 12.97043514251709 0.1319751739501953 C 12.83599662780762 0.04571342468261719 12.67975616455078 -7.62939453125e-06 12.52036666870117 -6.67572021484375e-06 M 12.52036476135254 -0.500004768371582 C 12.77615451812744 -0.500004768371582 13.02515506744385 -0.4269847869873047 13.24044513702393 -0.2888545989990234 C 13.46758460998535 -0.1430950164794922 13.64320468902588 0.06527519226074219 13.74834442138672 0.3137454986572266 C 13.85349464416504 0.5622053146362305 13.88080501556396 0.8333349227905273 13.82729530334473 1.09781551361084 C 13.77400016784668 1.361239433288574 13.64428424835205 1.599568367004395 13.45208930969238 1.787281036376953 L 8.564224243164062 6.675164699554443 L 13.45144462585449 11.56238460540771 C 13.57823848724365 11.68509674072266 13.67802143096924 11.82943344116211 13.74805450439453 11.99146556854248 C 13.81880474090576 12.15517520904541 13.85560512542725 12.32859516143799 13.85741519927979 12.50691509246826 C 13.85923480987549 12.68525505065918 13.8259744644165 12.85940551757812 13.75855445861816 13.02451515197754 C 13.69113445281982 13.18961524963379 13.59302520751953 13.33726501464844 13.46693515777588 13.46334552764893 C 13.34078502655029 13.58949565887451 13.193115234375 13.68762493133545 13.02800464630127 13.7550048828125 C 12.86735534667969 13.8206148147583 12.69772529602051 13.85390472412109 12.52395439147949 13.85390472412109 L 12.51021480560303 13.853835105896 C 12.33214473724365 13.85202503204346 12.15870475769043 13.81521511077881 11.99500465393066 13.74443531036377 C 11.83309364318848 13.67446327209473 11.6888370513916 13.57477283477783 11.56621265411377 13.44811344146729 L 6.678744316101074 8.560634613037109 L 1.791504859924316 13.44786548614502 C 1.668803215026855 13.57464981079102 1.524466514587402 13.67442226409912 1.362424850463867 13.74446487426758 C 1.198735237121582 13.81523513793945 1.025264739990234 13.85203552246094 0.8469047546386719 13.85381507873535 L 0.833404541015625 13.85388565063477 C 0.6597747802734375 13.85388565063477 0.4902153015136719 13.8206148147583 0.3294448852539062 13.75498485565186 C 0.1643447875976562 13.68758487701416 0.01670455932617188 13.58948516845703 -0.1094150543212891 13.46339511871338 C -0.2355546951293945 13.33725547790527 -0.3336648941040039 13.18960475921631 -0.4010753631591797 13.02449512481689 C -0.4684848785400391 12.85938549041748 -0.5017452239990234 12.68524551391602 -0.4999246597290039 12.5069055557251 C -0.4981155395507812 12.32861518859863 -0.4613246917724609 12.15520477294922 -0.3905849456787109 11.99150562286377 C -0.3205175399780273 11.82938480377197 -0.2207317352294922 11.68503379821777 -0.09392642974853516 11.56233692169189 L 4.793264389038086 6.675154685974121 L -0.09498119354248047 1.786909103393555 C -0.2844066619873047 1.601621627807617 -0.4132118225097656 1.36668586730957 -0.4675750732421875 1.107245445251465 C -0.5221748352050781 0.8466949462890625 -0.4980850219726562 0.5786151885986328 -0.3979053497314453 0.3319854736328125 C -0.2977447509765625 0.08537483215332031 -0.1280946731567383 -0.1235752105712891 0.09271526336669922 -0.2722644805908203 C 0.3135547637939453 -0.4209651947021484 0.5709753036499023 -0.4995946884155273 0.8371648788452148 -0.4996547698974609 C 1.016505241394043 -0.4996347427368164 1.191024780273438 -0.4642848968505859 1.356044769287109 -0.3945751190185547 C 1.52005672454834 -0.3252878189086914 1.666258811950684 -0.2256574630737305 1.790634155273438 -0.09842491149902344 L 6.678744316101074 4.789685249328613 L 11.56650924682617 -0.09808921813964844 C 11.8090763092041 -0.3465690612792969 12.13368892669678 -0.4890775680541992 12.4809045791626 -0.499424934387207 C 12.49424457550049 -0.4998149871826172 12.50731468200684 -0.500004768371582 12.52036476135254 -0.500004768371582 Z" stroke="none" fill="#222"/>
  </g>
</svg>
