<svg xmlns="http://www.w3.org/2000/svg" width="21.78" height="15.557" viewBox="0 0 21.78 15.557">
  <path id="contributor" d="M11.892,3.992A3.112,3.112,0,1,0,15.011,7.1,3.116,3.116,0,0,0,11.892,3.992Zm-7,3.121A3.111,3.111,0,1,0,8,10.224,3.111,3.111,0,0,0,4.891,7.113Zm0,6.223H4.113A3.111,3.111,0,0,0,1,16.447v2.325a.78.78,0,0,0,.778.778H22a.78.78,0,0,0,.778-.778V16.447a3.111,3.111,0,0,0-3.111-3.111H18.115a3.071,3.071,0,0,0-1.781.567,3.706,3.706,0,0,0-3.462-2.132H10.92A3.7,3.7,0,0,0,7.459,13.91a3.087,3.087,0,0,0-1.79-.574Zm14,0a3.111,3.111,0,1,0-3.111-3.111A3.111,3.111,0,0,0,18.893,13.336Zm-14-4.667a1.556,1.556,0,1,1-1.556,1.556A1.56,1.56,0,0,1,4.891,8.669Zm14,0a1.556,1.556,0,1,1-1.556,1.556A1.56,1.56,0,0,1,18.893,8.669ZM4.113,14.892H5.669a1.581,1.581,0,0,1,1.556,1.556v1.547H2.558V16.447A1.56,1.56,0,0,1,4.113,14.892Zm14,0h1.556a1.581,1.581,0,0,1,1.556,1.556v1.547h-4.66V16.368A1.554,1.554,0,0,1,18.115,14.892Z" transform="translate(-1.002 -3.992)" fill="#2984ff"/>
</svg>
