<svg xmlns="http://www.w3.org/2000/svg" width="21" height="21" viewBox="0 0 21 21">
  <g id="error" transform="translate(0)">
    <rect id="error-2" width="21" height="21" fill="none"/>
    <path id="error-3" d="M20.576,11.524l-9.052,9.052a1.448,1.448,0,0,1-2.048,0L.424,11.524a1.448,1.448,0,0,1,0-2.048L9.476.424a1.448,1.448,0,0,1,2.048,0l9.052,9.052A1.448,1.448,0,0,1,20.576,11.524ZM11.454,14.8v-.955a.477.477,0,0,0-.477-.477h-.955a.477.477,0,0,0-.477.477V14.8a.477.477,0,0,0,.477.477h.955A.477.477,0,0,0,11.454,14.8Zm0-4.3V6.682a.955.955,0,0,0-1.909,0V10.5a.955.955,0,1,0,1.909,0Z" fill="#fc3b3b"/>
  </g>
</svg>
