<svg xmlns="http://www.w3.org/2000/svg" width="13.744" height="13.744" viewBox="0 0 13.744 13.744">
  <path id="icons8_help" d="M10.872,4a6.872,6.872,0,1,0,6.872,6.872A6.88,6.88,0,0,0,10.872,4Zm0,11a.687.687,0,1,1,.687-.687A.687.687,0,0,1,10.872,15ZM11.9,11.208c-.341.266-.512.4-.512.867a.515.515,0,1,1-1.031,0,1.931,1.931,0,0,1,.909-1.68A1.291,1.291,0,0,0,11.9,9.154a1.031,1.031,0,1,0-2.062,0v.172a.515.515,0,0,1-1.031,0V9.154a2.062,2.062,0,1,1,4.123,0A2.281,2.281,0,0,1,11.9,11.208Z" transform="translate(-4 -4)" fill="#222"/>
</svg>
