<svg id="terms_and_conditions" xmlns="http://www.w3.org/2000/svg" width="17" height="17" viewBox="0 0 17 17">
  <rect id="terms_and_conditions-2" width="17" height="17" fill="none"/>
  <path id="Vector" d="M9.287,0a1.637,1.637,0,0,1,1.352.7l.33.481H3.859A2.6,2.6,0,0,0,1.219,3.75v9.276l-.5-.321A1.568,1.568,0,0,1,0,11.392V3.75A3.806,3.806,0,0,1,3.859,0Zm1.479,1.974A2.206,2.206,0,0,1,13,4.145v8.684A2.206,2.206,0,0,1,10.766,15h-6.5a2.206,2.206,0,0,1-2.234-2.171V4.145A2.206,2.206,0,0,1,4.266,1.974ZM4.875,6.118a.6.6,0,0,0,.609.592H9.547a.592.592,0,1,0,0-1.184H5.484a.6.6,0,0,0-.609.592Zm0,2.368a.6.6,0,0,0,.609.592H9.547a.592.592,0,1,0,0-1.184H5.484a.6.6,0,0,0-.609.592Zm0,2.368a.6.6,0,0,0,.609.592H9.547a.592.592,0,1,0,0-1.184H5.484a.6.6,0,0,0-.609.592Z" transform="translate(2 1)" fill="#fff"/>
</svg>
