<svg xmlns="http://www.w3.org/2000/svg" width="15" height="15" viewBox="0 0 15 15">
  <path id="dark_theme" d="M13.333,0A1.666,1.666,0,0,1,15,1.667V13.333A1.666,1.666,0,0,1,13.333,15H1.667A1.666,1.666,0,0,1,0,13.333V1.667A1.666,1.666,0,0,1,1.667,0ZM6.911,2.2,5.775,3.333H4.167a.834.834,0,0,0-.833.833V5.775L2.2,6.911a.832.832,0,0,0,0,1.178L3.333,9.225v1.608a.834.834,0,0,0,.833.833H5.775L6.911,12.8a.834.834,0,0,0,1.178,0l1.136-1.136h1.608a.834.834,0,0,0,.833-.833V9.225L12.8,8.089a.832.832,0,0,0,0-1.178L11.667,5.775V4.167a.834.834,0,0,0-.833-.833H9.225L8.089,2.2a.833.833,0,0,0-1.178,0ZM7.5,10.833,6.667,10H5V8.333L4.167,7.5,5,6.667V5H6.667L7.5,4.167Z" transform="translate(0)" fill="#fff"/>
</svg>
