<svg xmlns="http://www.w3.org/2000/svg" width="10.02" height="10.02" viewBox="0 0 10.02 10.02">
  <path id="white_theme" d="M5.01,0a.394.394,0,0,0-.418.418V.835a.418.418,0,0,0,.835,0V.418A.394.394,0,0,0,5.01,0ZM1.753,1.336a.412.412,0,0,0-.292.126.4.4,0,0,0,0,.585l.292.292a.413.413,0,0,0,.585-.585l-.292-.292A.414.414,0,0,0,1.753,1.336Zm6.514,0a.414.414,0,0,0-.293.126l-.292.292a.413.413,0,0,0,.585.585l.292-.292a.4.4,0,0,0,0-.585A.412.412,0,0,0,8.267,1.336ZM5.01,2.088A2.923,2.923,0,1,0,7.933,5.01,2.923,2.923,0,0,0,5.01,2.088ZM.418,4.593a.418.418,0,0,0,0,.835H.835a.418.418,0,0,0,0-.835Zm8.768,0a.418.418,0,1,0,0,.835H9.6a.418.418,0,0,0,0-.835ZM2.046,7.557a.414.414,0,0,0-.293.126l-.292.292a.413.413,0,0,0,.585.585l.292-.292a.4.4,0,0,0,0-.585A.412.412,0,0,0,2.046,7.557Zm5.928,0a.412.412,0,0,0-.292.126.4.4,0,0,0,0,.585l.292.292a.413.413,0,0,0,.585-.585l-.292-.292A.414.414,0,0,0,7.974,7.557ZM5.01,8.768a.394.394,0,0,0-.418.418V9.6a.418.418,0,0,0,.835,0V9.185A.394.394,0,0,0,5.01,8.768Z" fill="#d4d6dd"/>
</svg>
